{
  "ffprobe": {
    "audio_streams": [
      {
        "avg_frame_rate": "0/0",
        "bit_rate": "768000",
        "bits_per_sample": 16,
        "channels": 1,
        "codec_long_name": "PCM signed 16-bit little-endian",
        "codec_name": "pcm_s16le",
        "codec_tag": "0x0000",
        "codec_tag_string": "[0][0][0][0]",
        "codec_time_base": "1/48000",
        "codec_type": "audio",
        "disposition": {
          "attached_pic": 0,
          "clean_effects": 0,
          "comment": 0,
          "default": 0,
          "dub": 0,
          "forced": 0,
          "hearing_impaired": 0,
          "karaoke": 0,
          "lyrics": 0,
          "original": 0,
          "timed_thumbnails": 0,
          "visual_impaired": 0
        },
        "duration": "20.560000",
        "duration_ts": 986880,
        "index": 1,
        "r_frame_rate": "0/0",
        "sample_fmt": "s16",
        "sample_rate": "48000",
        "start_pts": 0,
        "start_time": "0.000000",
        "tags": {
          "file_package_name": "Source Package",
          "file_package_umid": "0x060A2B340101010501010D12131D1064407C9A03279005A5BF3A8863DFCC4BB3",
          "track_name": "Track 2"
        },
        "time_base": "1/48000"
      },
      {
        "avg_frame_rate": "0/0",
        "bit_rate": "768000",
        "bits_per_sample": 16,
        "channels": 1,
        "codec_long_name": "PCM signed 16-bit little-endian",
        "codec_name": "pcm_s16le",
        "codec_tag": "0x0000",
        "codec_tag_string": "[0][0][0][0]",
        "codec_time_base": "1/48000",
        "codec_type": "audio",
        "disposition": {
          "attached_pic": 0,
          "clean_effects": 0,
          "comment": 0,
          "default": 0,
          "dub": 0,
          "forced": 0,
          "hearing_impaired": 0,
          "karaoke": 0,
          "lyrics": 0,
          "original": 0,
          "timed_thumbnails": 0,
          "visual_impaired": 0
        },
        "duration": "20.560000",
        "duration_ts": 986880,
        "index": 2,
        "r_frame_rate": "0/0",
        "sample_fmt": "s16",
        "sample_rate": "48000",
        "start_pts": 0,
        "start_time": "0.000000",
        "tags": {
          "file_package_name": "Source Package",
          "file_package_umid": "0x060A2B340101010501010D12131D1064407C9A03279005A5BF3A8863DFCC4BB3",
          "track_name": "Track 3"
        },
        "time_base": "1/48000"
      },
      {
        "avg_frame_rate": "0/0",
        "bit_rate": "768000",
        "bits_per_sample": 16,
        "channels": 1,
        "codec_long_name": "PCM signed 16-bit little-endian",
        "codec_name": "pcm_s16le",
        "codec_tag": "0x0000",
        "codec_tag_string": "[0][0][0][0]",
        "codec_time_base": "1/48000",
        "codec_type": "audio",
        "disposition": {
          "attached_pic": 0,
          "clean_effects": 0,
          "comment": 0,
          "default": 0,
          "dub": 0,
          "forced": 0,
          "hearing_impaired": 0,
          "karaoke": 0,
          "lyrics": 0,
          "original": 0,
          "timed_thumbnails": 0,
          "visual_impaired": 0
        },
        "duration": "20.560000",
        "duration_ts": 986880,
        "index": 3,
        "r_frame_rate": "0/0",
        "sample_fmt": "s16",
        "sample_rate": "48000",
        "start_pts": 0,
        "start_time": "0.000000",
        "tags": {
          "file_package_name": "Source Package",
          "file_package_umid": "0x060A2B340101010501010D12131D1064407C9A03279005A5BF3A8863DFCC4BB3",
          "track_name": "Track 4"
        },
        "time_base": "1/48000"
      },
      {
        "avg_frame_rate": "0/0",
        "bit_rate": "768000",
        "bits_per_sample": 16,
        "channels": 1,
        "codec_long_name": "PCM signed 16-bit little-endian",
        "codec_name": "pcm_s16le",
        "codec_tag": "0x0000",
        "codec_tag_string": "[0][0][0][0]",
        "codec_time_base": "1/48000",
        "codec_type": "audio",
        "disposition": {
          "attached_pic": 0,
          "clean_effects": 0,
          "comment": 0,
          "default": 0,
          "dub": 0,
          "forced": 0,
          "hearing_impaired": 0,
          "karaoke": 0,
          "lyrics": 0,
          "original": 0,
          "timed_thumbnails": 0,
          "visual_impaired": 0
        },
        "duration": "20.560000",
        "duration_ts": 986880,
        "index": 4,
        "r_frame_rate": "0/0",
        "sample_fmt": "s16",
        "sample_rate": "48000",
        "start_pts": 0,
        "start_time": "0.000000",
        "tags": {
          "file_package_name": "Source Package",
          "file_package_umid": "0x060A2B340101010501010D12131D1064407C9A03279005A5BF3A8863DFCC4BB3",
          "track_name": "Track 5"
        },
        "time_base": "1/48000"
      }
    ],
    "format": {
      "bit_rate": "117260370",
      "duration": "20.560000",
      "filename": "/mnt/media2/NOFOTBALL/202006/9693851004/9693851004_original.mxf",
      "filename_extension": "mxf",
      "format_long_name": "MXF (Material eXchange Format)",
      "format_name": "mxf",
      "nb_programs": 0,
      "probe_score": 100,
      "size": "301359152",
      "start_time": "0.000000",
      "streams_attachment_count": 0,
      "streams_audio_count": 4,
      "streams_count": 5,
      "streams_data_count": 0,
      "streams_image_count": 0,
      "streams_subtitle_count": 0,
      "streams_video_count": 1
    },
    "video_streams": [
      {
        "avg_frame_rate": "25/1",
        "bits_per_raw_sample": "10",
        "chroma_location": "left",
        "codec_long_name": "H.264 / AVC / MPEG-4 AVC / MPEG-4 part 10",
        "codec_name": "h264",
        "codec_tag": "0x0000",
        "codec_tag_string": "[0][0][0][0]",
        "codec_time_base": "1/50",
        "codec_type": "video",
        "coded_height": 1088,
        "coded_width": 1920,
        "color_primaries": "bt709",
        "color_range": "pc",
        "color_space": "bt709",
        "color_transfer": "bt709",
        "display_aspect_ratio": "16:9",
        "disposition": {
          "attached_pic": 0,
          "clean_effects": 0,
          "comment": 0,
          "default": 0,
          "dub": 0,
          "forced": 0,
          "hearing_impaired": 0,
          "karaoke": 0,
          "lyrics": 0,
          "original": 0,
          "timed_thumbnails": 0,
          "visual_impaired": 0
        },
        "duration": "20.560000",
        "duration_ts": 514,
        "field_order": "tt",
        "has_b_frames": 0,
        "height": 1080,
        "index": 0,
        "is_avc": "false",
        "level": 41,
        "nal_length_size": "0",
        "pix_fmt": "yuv422p10le",
        "profile": "High 4:2:2 Intra",
        "r_frame_rate": "25/1",
        "refs": 1,
        "sample_aspect_ratio": "1:1",
        "start_pts": 0,
        "start_time": "0.000000",
        "tags": {
          "file_package_name": "Source Package",
          "file_package_umid": "0x060A2B340101010501010D12131D1064407C9A03279005A5BF3A8863DFCC4BB3",
          "track_name": "Track 1"
        },
        "time_base": "1/25",
        "width": 1920
      }
    ]
  },
  "mediainfo": {
    "audio_streams": [
      {
        "BitDepth": 16,
        "BitRate": 768000,
        "BitRate_Mode": "CBR",
        "Channels": 1,
        "CodecID": "0D01030102060300",
        "Delay": "55.320",
        "Delay_DropFrame": "No",
        "Delay_Source": "Container",
        "Duration": "20.560",
        "Format": "PCM",
        "Format_Settings_Endianness": "Little",
        "Format_Settings_Wrapping": "Frame (AES)",
        "FrameCount": 514,
        "FrameRate": "25.000",
        "ID": 768,
        "SamplesPerFrame": 1920,
        "SamplingCount": 986880,
        "SamplingRate": 48000,
        "StreamOrder": 1,
        "StreamSize": 1973760,
        "StreamSize_Proportion": "0.00655",
        "extra": {
          "BlockAlignment": 2,
          "Delay_SDTI": 55320,
          "Locked": "Yes"
        }
      },
      {
        "BitDepth": 16,
        "BitRate": 768000,
        "BitRate_Mode": "CBR",
        "Channels": 1,
        "CodecID": "0D01030102060300",
        "Delay": "55.320",
        "Delay_DropFrame": "No",
        "Delay_Source": "Container",
        "Duration": "20.560",
        "Format": "PCM",
        "Format_Settings_Endianness": "Little",
        "Format_Settings_Wrapping": "Frame (AES)",
        "FrameCount": 514,
        "FrameRate": "25.000",
        "ID": 1024,
        "SamplesPerFrame": 1920,
        "SamplingCount": 986880,
        "SamplingRate": 48000,
        "StreamOrder": 2,
        "StreamSize": 1973760,
        "StreamSize_Proportion": "0.00655",
        "extra": {
          "BlockAlignment": 2,
          "Delay_SDTI": 55320,
          "Locked": "Yes"
        }
      },
      {
        "BitDepth": 16,
        "BitRate": 768000,
        "BitRate_Mode": "CBR",
        "Channels": 1,
        "CodecID": "0D01030102060300",
        "Delay": "55.320",
        "Delay_DropFrame": "No",
        "Delay_Source": "Container",
        "Duration": "20.560",
        "Format": "PCM",
        "Format_Settings_Endianness": "Little",
        "Format_Settings_Wrapping": "Frame (AES)",
        "FrameCount": 514,
        "FrameRate": "25.000",
        "ID": 1280,
        "SamplesPerFrame": 1920,
        "SamplingCount": 986880,
        "SamplingRate": 48000,
        "StreamOrder": 3,
        "StreamSize": 1973760,
        "StreamSize_Proportion": "0.00655",
        "extra": {
          "BlockAlignment": 2,
          "Delay_SDTI": 55320,
          "Locked": "Yes"
        }
      },
      {
        "BitDepth": 16,
        "BitRate": 768000,
        "BitRate_Mode": "CBR",
        "Channels": 1,
        "CodecID": "0D01030102060300",
        "Delay": "55.320",
        "Delay_DropFrame": "No",
        "Delay_Source": "Container",
        "Duration": "20.560",
        "Format": "PCM",
        "Format_Settings_Endianness": "Little",
        "Format_Settings_Wrapping": "Frame (AES)",
        "FrameCount": 514,
        "FrameRate": "25.000",
        "ID": 1536,
        "SamplesPerFrame": 1920,
        "SamplingCount": 986880,
        "SamplingRate": 48000,
        "StreamOrder": 4,
        "StreamSize": 1973760,
        "StreamSize_Proportion": "0.00655",
        "extra": {
          "BlockAlignment": 2,
          "Delay_SDTI": 55320,
          "Locked": "Yes"
        }
      }
    ],
    "format": {
      "AudioCount": 4,
      "Duration": "20.560",
      "Encoded_Application_CompanyName": "Adobe Systems Incorporated",
      "Encoded_Application_Name": "Premiere Pro",
      "Encoded_Application_Version": "1.0.0.0.1",
      "Encoded_Date": "2020-06-27 16:47:35.000",
      "Encoded_Library_Name": "Mac OS X",
      "Encoded_Library_Version": "5.0.15.0.1",
      "FileExtension": "mxf",
      "FileSize": 301359152,
      "File_Modified_Date": "UTC 2020-06-27 16:54:49",
      "File_Modified_Date_Local": "2020-06-27 16:54:49",
      "FooterSize": 560,
      "Format": "MXF",
      "Format_Profile": "OP-1a",
      "Format_Settings": "Closed / Complete",
      "Format_Version": "1.2",
      "FrameCount": 514,
      "FrameRate": "25.000",
      "OtherCount": 3,
      "OverallBitRate": 117260368,
      "PackageName": "Source Package",
      "StreamSize": 15426,
      "VideoCount": 1,
      "filename": "/mnt/media2/NOFOTBALL/202006/9693851004/9693851004_original.mxf",
      "streams_attachment_count": 0,
      "streams_audio_count": 4,
      "streams_count": 5,
      "streams_data_count": 0,
      "streams_image_count": 0,
      "streams_other_count": 0,
      "streams_subtitle_count": 0,
      "streams_video_count": 1
    },
    "other_streams": [
      {
        "Format": "MXF TC",
        "ID": "0-Material",
        "TimeCode_FirstFrame": "00:00:55:08",
        "TimeCode_Settings": "Material Package",
        "TimeCode_Striped": "Yes",
        "Type": "Time code"
      },
      {
        "Format": "MXF TC",
        "ID": "0-Source",
        "TimeCode_FirstFrame": "00:00:55:08",
        "TimeCode_Settings": "Source Package",
        "TimeCode_Striped": "Yes",
        "Type": "Time code"
      },
      {
        "Format": "SMPTE TC",
        "MuxingMode": "SDTI",
        "TimeCode_FirstFrame": "00:00:55:08",
        "Type": "Time code"
      }
    ],
    "video_streams": [
      {
        "BitDepth": 10,
        "BitRate": 113664000,
        "ChromaSubsampling": "4:2:2",
        "CodecID": "0D01030102106001-0401020201323102",
        "ColorSpace": "YUV",
        "Delay": "55.320",
        "DisplayAspectRatio": "1.778",
        "Duration": "20.560",
        "Format": "AVC",
        "Format_Level": "4.1",
        "Format_Profile": "High 4:2:2 Intra",
        "Format_Settings_CABAC": "No",
        "Format_Settings_GOP": "N=1",
        "Format_Settings_Wrapping": "Frame",
        "FrameCount": 514,
        "FrameRate": "25.000",
        "Height": 1080,
        "ID": 512,
        "PixelAspectRatio": "1.000",
        "Sampled_Height": 1080,
        "Sampled_Width": 1920,
        "ScanOrder": "TFF",
        "ScanType": "MBAFF",
        "Standard": "Component",
        "Stored_Height": 1088,
        "StreamOrder": 0,
        "StreamSize": 293448686,
        "Width": 1920,
        "colour_description_present": "Yes",
        "colour_description_present_Source": "Stream",
        "colour_primaries": "BT.709",
        "colour_primaries_Source": "Container / Stream",
        "colour_range": "Min: 0, Max: 1023, Chroma range: 1023",
        "colour_range_Original": "Full",
        "colour_range_Original_Source": "Stream",
        "colour_range_Source": "Container",
        "extra": {
          "Delay_SDTI": 55320
        },
        "matrix_coefficients": "BT.709",
        "matrix_coefficients_Source": "Container / Stream",
        "transfer_characteristics": "BT.709",
        "transfer_characteristics_Source": "Container / Stream"
      }
    ]
  }
}
